<?xml version="1.0" encoding="UTF-8" standalone="no"?>
<!DOCTYPE svg  PUBLIC '-//W3C//DTD SVG 20010904//EN'  'http://www.w3.org/TR/2001/REC-SVG-20010904/DTD/svg10.dtd'>
<svg xmlns="http://www.w3.org/2000/svg" height="400pt" width="400pt" version="1.0" preserveAspectRatio="xMidYMid meet" viewBox="0 0 400.000000 400.000000">
 <metadata>Created by potrace 1.11, written by Peter Selinger 2001-2013</metadata>
 <g transform="translate(0 400) scale(0.1 -0.1)" fill="#fff">
  <path d="m158 3258c16-29 44-78 62-108s44-75 58-100c32-58 353-614 381-660 11-19 29-51 40-70 10-19 110-192 221-385 112-192 214-370 228-395s89-156 168-291c78-136 153-266 167-290 34-61 139-243 142-247 1-1 66 109 145 245 79 137 161 277 182 312 21 36 38 68 38 73 0 21 21 4 42-34 14-24 84-146 158-273 73-126 144-251 158-277 14-27 28-48 31-48s31 44 61 97c30 54 69 122 86 153 17 30 73 127 124 215s124 214 162 280c37 66 72 127 78 135 9 16 101 173 130 225 19 33 367 636 666 1153 106 182 189 333 186 333-4 1-254 2-556 3-617 1-564 8-611-79-15-27-134-234-265-460-130-225-364-630-520-900-155-269-285-492-288-495-2-3-6 0-8 5-5 12-655 1141-723 1255-11 19-25 44-30 55-6 11-89 155-184 320l-174 300-192 3-192 2 29-52zm3134-310c-11-18-31-53-45-78-13-25-84-148-157-275-73-126-144-250-158-275s-102-178-195-340-212-371-265-463c-79-139-97-165-105-150-6 10-47 85-93 166l-83 148 56 97c121 210 677 1168 687 1184s30 18 194 18h184l-20-32z"/>
  <path d="m880 3304c0-2 55-99 123-216 225-389 394-683 414-718 11-19 76-132 144-250s130-226 137-240 21-36 31-49l18-23 83 143c46 79 88 151 93 160 8 13-49 120-268 500-153 266-306 531-339 589l-62 105-187 1c-103 1-187 0-187-2z"/>
 </g>
</svg>
