<?xml version="1.0" encoding="utf-8"?>
<!-- Generator: Adobe Illustrator 16.0.0, SVG Export Plug-In . SVG Version: 6.00 Build 0)  -->
<!DOCTYPE svg PUBLIC "-//W3C//DTD SVG 1.1//EN" "http://www.w3.org/Graphics/SVG/1.1/DTD/svg11.dtd">
<svg version="1.1" id="Capa_1" xmlns="http://www.w3.org/2000/svg" xmlns:xlink="http://www.w3.org/1999/xlink" x="0px" y="0px"
	 width="1280px" height="800px" viewBox="0 0 1280 800" enable-background="new 0 0 1280 800" xml:space="preserve">
<g>
	<g>
		<path d="M755.611,461.756c50.179,0,91.004-40.824,91.004-91.001c0-50.168-40.823-90.984-91.004-90.984
			c-50.178,0-91.001,40.816-91.001,90.984C664.61,420.934,705.434,461.756,755.611,461.756z"/>
		<path d="M812.347,447.462c-3.039-1.713-6.854-1.151-9.271,1.365l-47.461,49.491l-47.464-49.491
			c-2.416-2.519-6.233-3.083-9.271-1.365c-21.827,12.323-40.266,31.481-53.318,55.399c-13.313,24.398-20.35,52.657-20.35,81.726
			c0,4.221,3.422,7.641,7.641,7.641h245.525c4.219,0,7.64-3.42,7.64-7.641c0-29.068-7.036-57.329-20.351-81.726
			C852.612,478.943,834.174,459.785,812.347,447.462z"/>
	</g>
	<g>
		<path d="M452.303,461.756c50.179,0,91.004-40.824,91.004-91.001c0-50.168-40.824-90.984-91.004-90.984
			c-50.178,0-91.002,40.816-91.002,90.984C361.301,420.934,402.125,461.756,452.303,461.756z"/>
		<path d="M509.038,447.462c-3.039-1.713-6.854-1.151-9.271,1.365l-47.46,49.491l-47.463-49.491
			c-2.416-2.519-6.233-3.083-9.271-1.365c-21.828,12.323-40.265,31.481-53.318,55.399c-13.313,24.398-20.35,52.657-20.35,81.726
			c0,4.221,3.421,7.641,7.641,7.641h245.525c4.219,0,7.641-3.42,7.641-7.641c0-29.068-7.037-57.329-20.351-81.726
			C549.303,478.943,530.865,459.785,509.038,447.462z"/>
	</g>
	<g>
		<path stroke-width="10" stroke-miterlimit="10" d="M604.536,432.681c63.669,0,115.47-51.799,115.47-115.466
			c0-63.655-51.799-115.444-115.47-115.444c-63.667,0-115.466,51.789-115.466,115.444
			C489.07,380.884,540.867,432.681,604.536,432.681z"/>
		<path stroke-width="10" stroke-miterlimit="10" d="M744.176,484.837c-16.562-30.349-39.956-54.657-67.654-70.293
			c-3.854-2.174-8.698-1.462-11.764,1.731l-60.22,62.797l-60.226-62.797c-3.065-3.195-7.906-3.911-11.762-1.731
			c-27.695,15.636-51.089,39.944-67.651,70.293c-16.892,30.957-25.82,66.813-25.82,103.696c0,5.355,4.341,9.694,9.694,9.694h311.532
			c5.353,0,9.694-4.339,9.694-9.694C770,551.65,761.069,515.794,744.176,484.837z"/>
	</g>
</g>
</svg>
