<?xml version="1.0" encoding="utf-8"?>
<!-- Generator: Adobe Illustrator 16.0.0, SVG Export Plug-In . SVG Version: 6.00 Build 0)  -->
<!DOCTYPE svg PUBLIC "-//W3C//DTD SVG 1.1//EN" "http://www.w3.org/Graphics/SVG/1.1/DTD/svg11.dtd">
<svg version="1.1" xmlns="http://www.w3.org/2000/svg" xmlns:xlink="http://www.w3.org/1999/xlink" x="0px" y="0px" width="400.9px"
	 height="400.9px" viewBox="0 0 400.9 400.9" enable-background="new 0 0 400.9 400.9" xml:space="preserve">
<g id="Capa_1">
</g>
<g id="Layer_2">
	<polygon points="368.5,382.438 32.401,382.438 32.401,18.464 278.982,18.464 368.5,130.089 	"/>
	<g>
		<path d="M140.369,151.143c-5.704,3.864-15.271,7.728-27.415,7.728c-14.903,0-28.149-5.703-37.35-16.374
			c-6.992-7.728-11.592-18.401-13.249-31.647H50.949v-9.015h10.488c0-0.921,0-1.841,0-2.76c0-2.944,0.184-5.705,0.369-8.28H50.949
			v-9.2h12.145c2.208-12.88,7.728-23.551,15.086-31.095c9.384-9.75,21.345-15.271,36.431-15.271c10.857,0,19.32,3.129,24.472,5.888
			l-3.68,12.144c-4.6-2.76-12.327-5.152-20.607-5.152c-9.936,0-18.032,3.496-24.289,10.121c-5.519,5.335-9.198,13.615-11.038,23.366
			h51.334v9.2h-52.99c-0.185,2.392-0.369,5.152-0.369,7.727c0,1.105,0,2.023,0,3.313h53.359v9.015H78.731
			c1.473,10.671,5.153,18.582,10.122,24.103c6.807,7.175,16.007,10.671,25.943,10.671c9.75,0,18.213-3.679,22.447-6.07
			L140.369,151.143z"/>
	</g>
	<rect x="185.742" y="81.744" width="73.267" height="33.818"/>
	<rect x="64.721" y="231.772" width="270.551" height="33.592"/>
	<rect x="185.742" y="136.217" width="149.529" height="33.819"/>
	<rect x="65.629" y="284.43" width="270.551" height="33.592"/>
	<rect x="65.629" y="336.18" width="270.551" height="33.592"/>
</g>
</svg>
