<?xml version="1.0" standalone="no"?>
<!DOCTYPE svg PUBLIC "-//W3C//DTD SVG 20010904//EN"
 "http://www.w3.org/TR/2001/REC-SVG-20010904/DTD/svg10.dtd">
<svg version="1.0" xmlns="http://www.w3.org/2000/svg"
 width="400.000000pt" height="400.000000pt" viewBox="0 0 400.000000 400.000000"
 preserveAspectRatio="xMidYMid meet">
<metadata>
Created by potrace 1.11, written by Peter Selinger 2001-2013
</metadata>
<g transform="translate(0.000000,400.000000) scale(0.100000,-0.100000)"
fill="#000000" stroke="none">
<path d="M158 3258 c16 -29 44 -78 62 -108 18 -30 44 -75 58 -100 32 -58 353
-614 381 -660 11 -19 29 -51 40 -70 10 -19 110 -192 221 -385 112 -192 214
-370 228 -395 14 -25 89 -156 168 -291 78 -136 153 -266 167 -290 34 -61 139
-243 142 -247 1 -1 66 109 145 245 79 137 161 277 182 312 21 36 38 68 38 73
0 21 21 4 42 -34 14 -24 84 -146 158 -273 73 -126 144 -251 158 -277 14 -27
28 -48 31 -48 3 0 31 44 61 97 30 54 69 122 86 153 17 30 73 127 124 215 51
88 124 214 162 280 37 66 72 127 78 135 9 16 101 173 130 225 19 33 367 636
666 1153 106 182 189 333 186 333 -4 1 -254 2 -556 3 -617 1 -564 8 -611 -79
-15 -27 -134 -234 -265 -460 -130 -225 -364 -630 -520 -900 -155 -269 -285
-492 -288 -495 -2 -3 -6 0 -8 5 -5 12 -655 1141 -723 1255 -11 19 -25 44 -30
55 -6 11 -89 155 -184 320 l-174 300 -192 3 -192 2 29 -52z m3134 -310 c-11
-18 -31 -53 -45 -78 -13 -25 -84 -148 -157 -275 -73 -126 -144 -250 -158 -275
-14 -25 -102 -178 -195 -340 -93 -162 -212 -371 -265 -463 -79 -139 -97 -165
-105 -150 -6 10 -47 85 -93 166 l-83 148 56 97 c121 210 677 1168 687 1184 10
16 30 18 194 18 l184 0 -20 -32z"/>
<path d="M880 3304 c0 -2 55 -99 123 -216 225 -389 394 -683 414 -718 11 -19
76 -132 144 -250 68 -118 130 -226 137 -240 7 -14 21 -36 31 -49 l18 -23 83
143 c46 79 88 151 93 160 8 13 -49 120 -268 500 -153 266 -306 531 -339 589
l-62 105 -187 1 c-103 1 -187 0 -187 -2z"/>
</g>
</svg>
